<svg width="77" height="76" viewBox="0 0 77 76" fill="none" xmlns="http://www.w3.org/2000/svg">
<path d="M35.4328 40.1063C35.611 39.587 35.2252 39.0466 34.6761 39.0466H26.4403C25.7513 39.0466 25.3846 38.2337 25.8405 37.7172L42.3494 19.0155C42.9288 18.3592 43.99 18.9765 43.7059 19.8046L39.8997 30.897C39.7215 31.4163 40.1074 31.9566 40.6564 31.9566H48.8934C49.5824 31.9566 49.9491 32.7696 49.493 33.2861L32.9823 51.9849C32.4029 52.6411 31.3417 52.0236 31.626 51.1956L35.4328 40.1063Z" fill="#0085E6"/>
<g style="mix-blend-mode:overlay">
<path d="M35.9057 40.2687C36.1954 39.4248 35.5683 38.5466 34.6761 38.5466H26.4403C26.1819 38.5466 26.0444 38.2417 26.2154 38.048L42.7243 19.3464C42.9415 19.1003 43.3395 19.3318 43.233 19.6423L39.4268 30.7347C39.1372 31.5785 39.7643 32.4566 40.6564 32.4566H48.8934C49.1518 32.4566 49.2893 32.7615 49.1182 32.9552L32.6075 51.6539C32.3902 51.9 31.9923 51.6684 32.0989 51.3579L35.9057 40.2687Z" fill="url(#paint0_radial_2864_3734)"/>
<path d="M35.9057 40.2687C36.1954 39.4248 35.5683 38.5466 34.6761 38.5466H26.4403C26.1819 38.5466 26.0444 38.2417 26.2154 38.048L42.7243 19.3464C42.9415 19.1003 43.3395 19.3318 43.233 19.6423L39.4268 30.7347C39.1372 31.5785 39.7643 32.4566 40.6564 32.4566H48.8934C49.1518 32.4566 49.2893 32.7615 49.1182 32.9552L32.6075 51.6539C32.3902 51.9 31.9923 51.6684 32.0989 51.3579L35.9057 40.2687Z" stroke="white" stroke-opacity="0.28"/>
<path d="M35.9057 40.2687C36.1954 39.4248 35.5683 38.5466 34.6761 38.5466H26.4403C26.1819 38.5466 26.0444 38.2417 26.2154 38.048L42.7243 19.3464C42.9415 19.1003 43.3395 19.3318 43.233 19.6423L39.4268 30.7347C39.1372 31.5785 39.7643 32.4566 40.6564 32.4566H48.8934C49.1518 32.4566 49.2893 32.7615 49.1182 32.9552L32.6075 51.6539C32.3902 51.9 31.9923 51.6684 32.0989 51.3579L35.9057 40.2687Z" stroke="url(#paint1_linear_2864_3734)"/>
</g>
<path d="M23.3492 61.6016C22.607 61.3344 21.7758 61.4531 21.1375 61.9133C19.5047 63.1008 16.7734 64.7781 13.5375 66.1883C10.1383 67.6875 6.175 68.875 2.375 68.875L2.38984 68.8602L2.43438 68.8156L2.44922 68.8008C2.50859 68.7414 2.58281 68.6672 2.67188 68.5633C2.86484 68.3555 3.14687 68.0289 3.47344 67.6281C4.15625 66.7969 5.04688 65.6094 5.9375 64.125C7.52578 61.468 9.11406 57.8758 9.44063 53.7492C9.48516 53.1109 9.27734 52.4727 8.86172 51.9977C4.73516 47.3219 2.375 41.6664 2.375 35.625C2.375 20.3211 17.8422 7.125 38 7.125C58.1578 7.125 73.625 20.3211 73.625 35.625C73.625 50.9289 58.1578 64.125 38 64.125C32.775 64.125 27.8172 63.2195 23.3492 61.6016ZM0.697656 67.1977C0.0148437 67.8805 -0.178125 68.8898 0.192969 69.7805C0.564062 70.6711 1.425 71.25 2.38984 71.25C6.65 71.25 10.9398 69.9289 14.5023 68.3852C17.9016 66.9008 20.7961 65.1344 22.5625 63.843C27.2828 65.55 32.5078 66.5 38.0148 66.5C59.0039 66.5 76.0148 52.6805 76.0148 35.625C76.0148 18.5695 58.9891 4.75 38 4.75C17.0109 4.75 0 18.5695 0 35.625C0 42.3195 2.62734 48.5094 7.08047 53.5711C6.79844 57.2078 5.38828 60.4437 3.90391 62.9078C3.0875 64.2734 2.25625 65.3719 1.64766 66.1141C1.33594 66.4852 1.09844 66.7672 0.920312 66.9602C0.83125 67.0492 0.771875 67.1234 0.727344 67.168L0.682813 67.2125L0.697656 67.1977Z" fill="#485269"/>
<defs>
<radialGradient id="paint0_radial_2864_3734" cx="0" cy="0" r="1" gradientUnits="userSpaceOnUse" gradientTransform="translate(44.3612 13.4375) rotate(101.448) scale(44.0642 28.807)">
<stop offset="0.0426961" stop-color="#82F7FF"/>
<stop offset="0.384728" stop-color="#31DAF1"/>
<stop offset="0.672119" stop-color="#0DA8EA"/>
<stop offset="1" stop-color="#00507D"/>
</radialGradient>
<linearGradient id="paint1_linear_2864_3734" x1="37.667" y1="17.25" x2="37.667" y2="55" gradientUnits="userSpaceOnUse">
<stop stop-color="white"/>
<stop offset="0.557292" stop-color="white" stop-opacity="0"/>
</linearGradient>
</defs>
</svg>
