<svg width="15" height="23" viewBox="0 0 15 23" fill="none" xmlns="http://www.w3.org/2000/svg">
<path d="M6.14179 13.9771C6.20864 13.7824 6.06394 13.5797 5.85805 13.5797H0.664991C0.406624 13.5797 0.269099 13.2749 0.440083 13.0812L10.4781 1.70991C10.6953 1.4638 11.0933 1.6953 10.9868 2.00581L8.52406 9.18291C8.45724 9.37764 8.60194 9.58028 8.80782 9.58028H14.0016C14.2599 9.58028 14.3975 9.88516 14.2264 10.0788L4.18725 21.4484C3.96996 21.6945 3.57203 21.4629 3.67862 21.1524L6.14179 13.9771Z" fill="#0085E6"/>
<g style="mix-blend-mode:overlay">
<path d="M6.6147 14.1395C6.79297 13.6202 6.4071 13.0797 5.85805 13.0797H1.10832L10.1875 2.79467L8.05113 9.02063C7.87294 9.53992 8.25881 10.0803 8.80782 10.0803H13.5582L4.47803 20.3637L6.6147 14.1395Z" fill="url(#paint0_radial_2414_3449)"/>
<path d="M6.6147 14.1395C6.79297 13.6202 6.4071 13.0797 5.85805 13.0797H1.10832L10.1875 2.79467L8.05113 9.02063C7.87294 9.53992 8.25881 10.0803 8.80782 10.0803H13.5582L4.47803 20.3637L6.6147 14.1395Z" stroke="white" stroke-opacity="0.28"/>
<path d="M6.6147 14.1395C6.79297 13.6202 6.4071 13.0797 5.85805 13.0797H1.10832L10.1875 2.79467L8.05113 9.02063C7.87294 9.53992 8.25881 10.0803 8.80782 10.0803H13.5582L4.47803 20.3637L6.6147 14.1395Z" stroke="url(#paint1_linear_2414_3449)"/>
</g>
<defs>
<radialGradient id="paint0_radial_2414_3449" cx="0" cy="0" r="1" gradientUnits="userSpaceOnUse" gradientTransform="translate(11.1096 -0.866412) rotate(101.448) scale(24.8567 16.2501)">
<stop offset="0.0426961" stop-color="#82F7FF"/>
<stop offset="0.384728" stop-color="#31DAF1"/>
<stop offset="0.672119" stop-color="#0DA8EA"/>
<stop offset="1" stop-color="#00507D"/>
</radialGradient>
<linearGradient id="paint1_linear_2414_3449" x1="7.33333" y1="1.28423" x2="7.33333" y2="22.5791" gradientUnits="userSpaceOnUse">
<stop stop-color="white"/>
<stop offset="0.557292" stop-color="white" stop-opacity="0"/>
</linearGradient>
</defs>
</svg>
